<svg width="64" height="64" viewBox="0 0 64 64" fill="none" xmlns="http://www.w3.org/2000/svg">
<g clip-path="url(#clip0)">
<path d="M62.4745 25.5447C61.6148 24.9467 59.979 24.0011 58.8128 23.4974L56.9717 19.053C57.4261 17.9076 57.923 16.0751 58.1133 15.0163C58.3193 13.8704 57.9512 12.6964 57.1279 11.8732L52.1269 6.87217C51.3037 6.0487 50.1294 5.68058 48.9838 5.8868C47.9411 6.0743 46.1204 6.56283 44.9471 7.02837L40.5027 5.18731C40.0153 4.05854 39.0707 2.40995 38.4554 1.52557C37.7907 0.569835 36.7004 0 35.5363 0H28.4638C27.2997 0 26.2094 0.569835 25.5447 1.52557C24.9467 2.3853 24.0011 4.02109 23.4974 5.18731L19.053 7.02837C17.9076 6.57397 16.0751 6.07714 15.0163 5.8868C13.8711 5.68129 12.6964 6.04917 11.8732 6.87217L6.87216 11.8732C6.04894 12.6964 5.68082 13.8704 5.8868 15.0163C6.0743 16.059 6.56283 17.8797 7.02837 19.053L5.18731 23.4974C4.05854 23.9848 2.40995 24.9294 1.52557 25.5447C0.569835 26.2094 0 27.2997 0 28.4638V35.5363C0 36.7004 0.569835 37.7907 1.52557 38.4554C2.3853 39.0534 4.02109 39.999 5.18731 40.5027L7.02837 44.9471C6.57397 46.0925 6.07714 47.925 5.8868 48.9838C5.68082 50.1297 6.04894 51.3037 6.87216 52.1269L11.8732 57.1279C12.6962 57.9512 13.8697 58.3188 15.0163 58.1133C16.059 57.9258 17.8797 57.4373 19.053 56.9717L23.4974 58.8128C23.9848 59.9416 24.9294 61.5902 25.5447 62.4745C26.2094 63.4303 27.2997 64.0001 28.4638 64.0001H35.5363C36.7004 64.0001 37.7907 63.4303 38.4554 62.4745C39.0534 61.6148 39.999 59.979 40.5027 58.8128L44.9471 56.9717C46.0925 57.4261 47.925 57.923 48.9838 58.1133C50.1297 58.3193 51.3037 57.9512 52.1269 57.1279L57.1279 52.1269C57.9512 51.3037 58.3193 50.1297 58.1133 48.9838C57.9258 47.9411 57.4373 46.1204 56.9717 44.9471L58.8128 40.5027C59.9416 40.0153 61.5902 39.0707 62.4745 38.4554C63.4303 37.7907 64.0001 36.7004 64.0001 35.5363V28.4638C64.0001 27.2997 63.4303 26.2094 62.4745 25.5447ZM31.9999 46.2226C24.1578 46.2226 17.7777 39.8425 17.7777 32.0004C17.7777 24.1583 24.1578 17.7782 31.9999 17.7782C39.842 17.7782 46.2221 24.1583 46.2221 32.0004C46.2221 39.8425 39.842 46.2226 31.9999 46.2226Z" fill="#AAAAAA"/>
</g>
<defs>
<clipPath id="clip0">
<rect width="64" height="64" fill="white"/>
</clipPath>
</defs>
</svg>
