<svg width="64" height="64" viewBox="0 0 64 64" fill="none" xmlns="http://www.w3.org/2000/svg">
<path d="M3 5.5H51C56.5228 5.5 61 9.97715 61 15.5V20.7573C61 26.2801 56.5228 30.7573 51 30.7573H13C7.47715 30.7573 3 35.2344 3 40.7573V48.5C3 54.0229 7.47715 58.5 13 58.5H61" stroke="#AAAAAA" stroke-width="5" stroke-linecap="round"/>
<path d="M5.50001 10.5C8.26145 10.5 10.5 8.26143 10.5 5.5C10.5 2.73858 8.26145 0.5 5.50001 0.5C2.73858 0.5 0.5 2.73858 0.5 5.5C0.5 8.26143 2.73858 10.5 5.50001 10.5Z" fill="#AAAAAA" stroke="#AAAAAA"/>
<path d="M34 10.5C36.7614 10.5 39 8.26143 39 5.5C39 2.73858 36.7614 0.5 34 0.5C31.2386 0.5 29 2.73858 29 5.5C29 8.26143 31.2386 10.5 34 10.5Z" fill="#AAAAAA" stroke="#AAAAAA"/>
<path d="M21 36C23.7614 36 26 33.7614 26 31C26 28.2386 23.7614 26 21 26C18.2386 26 16 28.2386 16 31C16 33.7614 18.2386 36 21 36Z" fill="#AAAAAA" stroke="#AAAAAA"/>
<path d="M30 63.5C32.7614 63.5 35 61.2614 35 58.5C35 55.7386 32.7614 53.5 30 53.5C27.2386 53.5 25 55.7386 25 58.5C25 61.2614 27.2386 63.5 30 63.5Z" fill="#AAAAAA" stroke="#AAAAAA"/>
<path d="M58.5 63.5C61.2614 63.5 63.5 61.2614 63.5 58.5C63.5 55.7386 61.2614 53.5 58.5 53.5C55.7386 53.5 53.5 55.7386 53.5 58.5C53.5 61.2614 55.7386 63.5 58.5 63.5Z" fill="#AAAAAA" stroke="#AAAAAA"/>
</svg>
