<svg width="64" height="64" viewBox="0 0 64 64" fill="none" xmlns="http://www.w3.org/2000/svg">
<g clip-path="url(#clip0)">
<path d="M5.54033 32.3286C8.435 32.3286 10.7815 29.9821 10.7815 27.0874C10.7815 24.1927 8.435 21.8462 5.54033 21.8462C2.64567 21.8462 0.299095 24.1927 0.299095 27.0874C0.299095 29.9821 2.64567 32.3286 5.54033 32.3286Z" fill="#AAAAAA" stroke="#AAAAAA" stroke-width="1.21978"/>
<path d="M22.6173 36.5979C25.5119 36.5979 27.8585 34.2513 27.8585 31.3566C27.8585 28.462 25.5119 26.1154 22.6173 26.1154C19.7226 26.1154 17.376 28.462 17.376 31.3566C17.376 34.2513 19.7226 36.5979 22.6173 36.5979Z" fill="#AAAAAA" stroke="#AAAAAA" stroke-width="1.21978"/>
<path d="M39.6942 25.01C42.5889 25.01 44.9354 22.6634 44.9354 19.7687C44.9354 16.874 42.5889 14.5275 39.6942 14.5275C36.7995 14.5275 34.453 16.874 34.453 19.7687C34.453 22.6634 36.7995 25.01 39.6942 25.01Z" fill="#AAAAAA" stroke="#AAAAAA" stroke-width="1.21978"/>
<path d="M58.2412 10.9825C61.1359 10.9825 63.4825 8.63591 63.4825 5.74125C63.4825 2.84658 61.1359 0.5 58.2412 0.5C55.3466 0.5 53 2.84658 53 5.74125C53 8.63591 55.3466 10.9825 58.2412 10.9825Z" fill="#AAAAAA" stroke="#AAAAAA" stroke-width="1.21978"/>
<path d="M3.17822 49.0511V58.1995" stroke="#AAAAAA" stroke-width="6.0989" stroke-linecap="round"/>
<path d="M17.996 52.863V59" stroke="#AAAAAA" stroke-width="6.0989" stroke-linecap="round"/>
<path d="M46.4 52.863V59" stroke="#AAAAAA" stroke-width="6.0989" stroke-linecap="round"/>
<path d="M32 41.4276V58.3234" stroke="#AAAAAA" stroke-width="6.0989" stroke-linecap="round"/>
<path d="M61 30.9451V58.1614" stroke="#AAAAAA" stroke-width="6.0989" stroke-linecap="round"/>
<path d="M5.89659 24.9406C4.57411 24.5439 3.1804 25.2943 2.78365 26.6168C2.38691 27.9393 3.13737 29.333 4.45985 29.7297L5.89659 24.9406ZM23.4749 32.8242L22.7566 35.2188L23.9993 35.5916L25.0195 34.79L23.4749 32.8242ZM4.45985 29.7297L22.7566 35.2188L24.1933 30.4296L5.89659 24.9406L4.45985 29.7297ZM25.0195 34.79L59.1733 7.95481L56.0842 4.02322L21.9304 30.8584L25.0195 34.79Z" fill="#AAAAAA"/>
</g>
<defs>
<clipPath id="clip0">
<rect width="64" height="64" fill="white"/>
</clipPath>
</defs>
</svg>
